<?xml version="1.0" encoding="utf-8"?><svg version="1.1" id="Layer_1" xmlns="http://www.w3.org/2000/svg" xmlns:xlink="http://www.w3.org/1999/xlink" x="0px" y="0px" viewBox="0 0 122.88 119.2" style="enable-background:new 0 0 122.88 119.2" xml:space="preserve"><style type="text/css"><![CDATA[
	.st0{fill:#EE4856;}
	.st1{fill-rule:evenodd;clip-rule:evenodd;fill:#262626;}
	.st2{fill-rule:evenodd;clip-rule:evenodd;fill:#FFFFFF;}
]]></style><g><path class="st1" d="M17.46,49.64L8.22,33.63c-0.8-1.39-0.32-3.16,1.07-3.96c0.46-0.26,0.95-0.39,1.45-0.39v-0.01h18.52v-18.6 c0-1.61,1.31-2.92,2.92-2.92c0.61,0,1.17,0.19,1.64,0.5l15.82,9.2l9.29-16c0.81-1.39,2.59-1.86,3.97-1.06 c0.46,0.27,0.82,0.64,1.07,1.08l9.28,15.98l16-9.31c1.39-0.81,3.17-0.33,3.97,1.06c0.27,0.46,0.39,0.96,0.39,1.46l0.01,18.6h18.6 c1.61,0,2.92,1.31,2.92,2.92c0,0.61-0.19,1.17-0.5,1.64l-9.2,15.82l16,9.29c1.39,0.81,1.86,2.59,1.06,3.97 c-0.27,0.46-0.64,0.82-1.08,1.07l-15.98,9.28l3.97,6.82c-1.22,0.02-2.44,0.13-3.66,0.35c-1.37,0.24-2.65,0.61-3.86,1.1 c-0.36,0.15-0.72,0.31-1.06,0.48c-1.21-0.82-2.7-1.3-4.31-1.3H85.26v0.03c-0.71,0-1.4,0.09-2.06,0.28c-0.68-0.2-1.41-0.3-2.16-0.3 H69.87c-1.62,0-3.11,0.49-4.32,1.31c-0.44-0.22-0.89-0.41-1.35-0.59c-1.17-0.45-2.41-0.79-3.72-1.01c-1.31-0.22-2.6-0.34-3.85-0.34 c-1.33,0-2.65,0.12-3.98,0.35c-1.37,0.24-2.65,0.61-3.86,1.1c-1.26,0.52-2.43,1.17-3.5,1.96l-0.01,0.01 c-0.17-0.13-0.34-0.25-0.52-0.37c-1.38-0.88-2.89-1.49-4.54-1.82c-1.04-0.21-2.48-0.37-4.3-0.46c-1.72-0.09-3.56-0.14-5.53-0.14 h-6.11c-1.47,0-2.83,0.4-3.98,1.09c-0.3-0.1-0.61-0.19-0.92-0.28c-1.06-0.29-2.27-0.5-3.63-0.63c-0.86-0.08-1.73-0.14-2.6-0.16 l4.31-7.47L1.45,63.96c-1.39-0.81-1.86-2.59-1.06-3.97c0.27-0.46,0.64-0.82,1.08-1.07L17.46,49.64L17.46,49.64L17.46,49.64z"/><path class="st0" d="M3.18,87.51h8.71c2.35,0,4.16,0.17,5.43,0.52c1.26,0.35,2.21,0.84,2.85,1.49c0.64,0.65,1.06,1.44,1.3,2.37 c0.22,0.93,0.34,2.36,0.34,4.3v2.7c0,1.97-0.22,3.42-0.66,4.32c-0.43,0.91-1.24,1.61-2.4,2.09c-1.17,0.48-2.7,0.73-4.58,0.73h-2.32 v12.51H3.18V87.51L3.18,87.51z M11.83,92.81v7.9c0.25,0.01,0.46,0.02,0.63,0.02c0.79,0,1.34-0.18,1.65-0.55 c0.3-0.36,0.46-1.12,0.46-2.27v-2.56c0-1.06-0.18-1.75-0.53-2.07C13.68,92.96,12.95,92.81,11.83,92.81L11.83,92.81z M24.27,87.51 h6.11c4.08,0,6.84,0.14,8.28,0.44c1.44,0.29,2.62,1.05,3.53,2.25c0.91,1.2,1.37,3.13,1.37,5.77c0,2.41-0.32,4.03-0.97,4.86 c-0.64,0.83-1.91,1.33-3.8,1.49c1.71,0.4,2.86,0.93,3.45,1.6c0.59,0.66,0.95,1.27,1.09,1.83c0.15,0.55,0.22,2.08,0.22,4.59v8.19 h-8.03v-10.32c0-1.66-0.14-2.69-0.42-3.08c-0.27-0.4-1-0.59-2.19-0.59v14h-8.66V87.51L24.27,87.51z M32.93,92.81v6.9 c0.97,0,1.64-0.12,2.02-0.37c0.39-0.25,0.58-1.06,0.58-2.43v-1.71c0-0.99-0.19-1.63-0.56-1.94C34.61,92.96,33.92,92.81,32.93,92.81 L32.93,92.81z M66.62,105.7c0,3.12-0.08,5.32-0.24,6.62c-0.15,1.3-0.64,2.48-1.47,3.56c-0.83,1.07-1.95,1.9-3.36,2.47 c-1.41,0.58-3.05,0.86-4.92,0.86c-1.78,0-3.37-0.27-4.78-0.82c-1.41-0.54-2.56-1.35-3.41-2.44c-0.86-1.08-1.37-2.27-1.54-3.54 c-0.16-1.28-0.25-3.52-0.25-6.71v-5.31c0-3.12,0.08-5.32,0.24-6.61c0.15-1.3,0.64-2.48,1.47-3.56c0.83-1.07,1.95-1.9,3.35-2.47 c1.41-0.58,3.05-0.86,4.92-0.86c1.78,0,3.37,0.27,4.78,0.82c1.42,0.54,2.56,1.35,3.41,2.44c0.86,1.08,1.37,2.27,1.54,3.54 c0.16,1.28,0.25,3.52,0.25,6.71V105.7L66.62,105.7z M57.96,95.51c0-1.44-0.08-2.36-0.25-2.77c-0.17-0.4-0.51-0.6-1.03-0.6 c-0.44,0-0.78,0.16-1.02,0.49c-0.23,0.32-0.35,1.28-0.35,2.88v14.48c0,1.8,0.08,2.91,0.23,3.33c0.15,0.42,0.51,0.63,1.07,0.63 c0.57,0,0.95-0.24,1.11-0.73c0.16-0.48,0.24-1.64,0.24-3.46V95.51L57.96,95.51z M96.51,87.51v31.02h-7.56l-0.02-20.94l-3,20.94 h-5.29l-3.17-20.47l-0.02,20.47h-7.56V87.51h11.17c0.32,1.88,0.66,4.09,1.03,6.61l1.23,7.88l1.97-14.49H96.51L96.51,87.51z M119.7,105.7c0,3.12-0.08,5.32-0.24,6.62c-0.15,1.3-0.64,2.48-1.47,3.56s-1.95,1.9-3.36,2.47s-3.05,0.86-4.92,0.86 c-1.78,0-3.37-0.27-4.78-0.82c-1.42-0.54-2.56-1.35-3.41-2.44c-0.86-1.08-1.37-2.27-1.54-3.54c-0.16-1.28-0.25-3.52-0.25-6.71 v-5.31c0-3.12,0.08-5.32,0.24-6.61c0.15-1.3,0.64-2.48,1.47-3.56c0.83-1.07,1.95-1.9,3.35-2.47c1.41-0.58,3.05-0.86,4.92-0.86 c1.78,0,3.37,0.27,4.78,0.82c1.42,0.54,2.56,1.35,3.41,2.44c0.86,1.08,1.37,2.27,1.54,3.54c0.16,1.28,0.25,3.52,0.25,6.71V105.7 L119.7,105.7z M111.04,95.51c0-1.44-0.08-2.36-0.25-2.77c-0.17-0.4-0.51-0.6-1.03-0.6c-0.44,0-0.78,0.16-1.02,0.49 c-0.23,0.32-0.35,1.28-0.35,2.88v14.48c0,1.8,0.08,2.91,0.23,3.33c0.15,0.42,0.51,0.63,1.07,0.63c0.57,0,0.95-0.24,1.11-0.73 c0.16-0.48,0.24-1.64,0.24-3.46V95.51L111.04,95.51z"/><path class="st2" d="M46.3,33.93c3.24,0,5.85,0.92,7.83,2.77c1.97,1.85,2.95,4.31,2.95,7.37c0,3.07-0.98,5.53-2.95,7.38 c-1.98,1.85-4.59,2.77-7.83,2.77c-3.24,0-5.84-0.93-7.82-2.77c-1.97-1.85-2.96-4.31-2.96-7.38c0-3.06,0.99-5.53,2.96-7.37 C40.46,34.85,43.06,33.93,46.3,33.93L46.3,33.93L46.3,33.93z M76.58,59.34c-0.7,0-1.25,0.21-1.62,0.6 c-0.37,0.42-0.56,0.98-0.56,1.72c0,0.74,0.19,1.31,0.56,1.72c0.37,0.41,0.91,0.6,1.62,0.6c0.7,0,1.24-0.21,1.61-0.6 c0.37-0.41,0.56-0.98,0.56-1.72c0-0.75-0.19-1.32-0.56-1.72C77.83,59.54,77.28,59.34,76.58,59.34L76.58,59.34L76.58,59.34z M46.3,41.76c-0.7,0-1.24,0.21-1.61,0.61c-0.37,0.41-0.56,0.98-0.56,1.71c0,0.74,0.19,1.32,0.56,1.73c0.37,0.4,0.9,0.61,1.61,0.61 c0.7,0,1.25-0.21,1.62-0.61c0.37-0.42,0.55-0.98,0.55-1.73c0-0.74-0.18-1.31-0.55-1.71C47.56,41.97,47.01,41.76,46.3,41.76 L46.3,41.76L46.3,41.76z M76.58,51.51c3.24,0,5.84,0.93,7.82,2.77c1.97,1.85,2.96,4.31,2.96,7.38c0,3.06-0.99,5.53-2.96,7.37 c-1.98,1.85-4.58,2.77-7.82,2.77c-3.24,0-5.85-0.92-7.83-2.77c-1.97-1.85-2.95-4.31-2.95-7.37c0-3.07,0.98-5.53,2.95-7.38 C70.73,52.44,73.34,51.51,76.58,51.51L76.58,51.51L76.58,51.51z M69.96,35.38h8.78l-25.7,34.95h-8.78L69.96,35.38L69.96,35.38 L69.96,35.38z"/></g></svg>