<svg width="29" height="28" viewBox="0 0 29 28" fill="none" xmlns="http://www.w3.org/2000/svg">
<path d="M23.4167 14.5833C23.4167 12.9733 24.7233 11.6666 26.3333 11.6666V10.5C26.3333 5.83329 25.1667 4.66663 20.5 4.66663H8.83333C4.16667 4.66663 3 5.83329 3 10.5V11.0833C4.61 11.0833 5.91667 12.39 5.91667 14C5.91667 15.61 4.61 16.9166 3 16.9166V17.5C3 22.1666 4.16667 23.3333 8.83333 23.3333H20.5C25.1667 23.3333 26.3333 22.1666 26.3333 17.5C24.7233 17.5 23.4167 16.1933 23.4167 14.5833Z" stroke="#CCCCCC" stroke-width="1.75" stroke-linecap="round" stroke-linejoin="round"/>
<path d="M12.334 4.66663L12.334 23.3333" stroke="#CCCCCC" stroke-width="1.75" stroke-linecap="round" stroke-linejoin="round" stroke-dasharray="5.83 5.83"/>
</svg>
