<svg width="29" height="28" viewBox="0 0 29 28" fill="none" xmlns="http://www.w3.org/2000/svg">
<path d="M14.951 23.8234H7.57768C3.89102 23.8234 2.66602 21.3734 2.66602 18.9118V9.08842C2.66602 5.40176 3.89102 4.17676 7.57768 4.17676H14.951C18.6377 4.17676 19.8627 5.40176 19.8627 9.08842V18.9118C19.8627 22.5984 18.626 23.8234 14.951 23.8234Z" stroke="#CCCCCC" stroke-width="1.75" stroke-linecap="round" stroke-linejoin="round"/>
<path d="M23.1066 19.9499L19.8633 17.6749V10.3132L23.1066 8.03824C24.6933 6.92991 25.9999 7.60658 25.9999 9.55491V18.4449C25.9999 20.3932 24.6933 21.0699 23.1066 19.9499Z" stroke="#CCCCCC" stroke-width="1.75" stroke-linecap="round" stroke-linejoin="round"/>
<path d="M13.75 12.8334C14.7165 12.8334 15.5 12.0499 15.5 11.0834C15.5 10.1169 14.7165 9.33337 13.75 9.33337C12.7835 9.33337 12 10.1169 12 11.0834C12 12.0499 12.7835 12.8334 13.75 12.8334Z" stroke="#CCCCCC" stroke-width="1.75" stroke-linecap="round" stroke-linejoin="round"/>
</svg>
